<?xml version="1.0" encoding="utf-8"?>
<!-- Generator: Adobe Illustrator 16.0.0, SVG Export Plug-In . SVG Version: 6.00 Build 0)  -->
<!DOCTYPE svg PUBLIC "-//W3C//DTD SVG 1.1//EN" "http://www.w3.org/Graphics/SVG/1.1/DTD/svg11.dtd">
<svg version="1.1" id="Layer_1" xmlns="http://www.w3.org/2000/svg" xmlns:xlink="http://www.w3.org/1999/xlink" x="0px" y="0px"
	 width="60px" height="60px" viewBox="3 -3.5 60 60" enable-background="new 3 -3.5 60 60" xml:space="preserve">
<g>
	<path fill="none" stroke="#FFFFFF" stroke-width="2.574" stroke-miterlimit="10" d="M59,48.11c0,2.215-1.797,4.02-4.021,4.02
		h-42.91c-2.226,0-4.02-1.805-4.02-4.02V5.193c0-2.219,1.794-4.019,4.02-4.019h42.91c2.225,0,4.021,1.8,4.021,4.019V48.11z"/>
</g>
<g>
	<path fill="#FFFFFF" d="M33.531,31.481l-4.183-3.664L17.4,38.058c0.436,0.412,1.014,0.659,1.662,0.659h28.925
		c0.648,0,1.226-0.247,1.661-0.659l-11.947-10.24L33.531,31.481z"/>
	<path fill="#FFFFFF" d="M49.648,15.246c-0.424-0.412-1.013-0.66-1.661-0.66H19.062c-0.637,0-1.227,0.248-1.662,0.66l16.131,13.822
		L49.648,15.246z"/>
	<path fill="#FFFFFF" d="M16.636,16.707v20.042l11.665-9.909L16.636,16.707z"/>
	<path fill="#FFFFFF" d="M38.75,26.84l11.666,9.909V16.696L38.75,26.84z"/>
</g>
</svg>
