<?xml version="1.0" encoding="utf-8"?>
<!-- Generator: Adobe Illustrator 16.0.0, SVG Export Plug-In . SVG Version: 6.00 Build 0)  -->
<!DOCTYPE svg PUBLIC "-//W3C//DTD SVG 1.1//EN" "http://www.w3.org/Graphics/SVG/1.1/DTD/svg11.dtd">
<svg version="1.1" id="Layer_1" xmlns="http://www.w3.org/2000/svg" xmlns:xlink="http://www.w3.org/1999/xlink" x="0px" y="0px"
	 width="60px" height="60px" viewBox="-4.525 2.478 60 60" enable-background="new -4.525 2.478 60 60" xml:space="preserve">
<g>
	<path fill="none" stroke="#FFFFFF" stroke-width="2.574" stroke-miterlimit="10" d="M49.95,52.936c0,2.215-1.796,4.021-4.021,4.021
		H3.02c-2.226,0-4.02-1.806-4.02-4.021V10.019c0-2.22,1.794-4.02,4.02-4.02h42.91c2.223,0,4.021,1.8,4.021,4.02V52.936z"/>
	<path fill="#FFFFFF" d="M18.574,49.562l-0.031-14.411l-4.636-0.036l-0.033-7.734l5.17-0.033l0.061-2.189
		c0.012-4.557-0.039-9.953,5.161-11.588c1.125-0.354,2.333-0.562,3.508-0.675c1.194-0.116,2.399-0.188,3.6-0.235
		c0.263-0.011,3.638-0.097,3.638,0.031c0,0,0.067,7.966,0.067,7.978c0-0.011-2.893,0.014-3.219,0.024
		c-1.252,0.028-2.567,0.166-3.28,1.341c-0.572,0.945-0.761,2.068-0.811,3.157c-0.011,0.171-0.017,2.217,0.105,2.221l6.474,0.061
		v7.959l-6.411,0.059l-0.011,14.072H18.574z"/>
</g>
</svg>
