<?xml version="1.0" encoding="utf-8"?>
<!-- Generator: Adobe Illustrator 16.0.0, SVG Export Plug-In . SVG Version: 6.00 Build 0)  -->
<!DOCTYPE svg PUBLIC "-//W3C//DTD SVG 1.1//EN" "http://www.w3.org/Graphics/SVG/1.1/DTD/svg11.dtd">
<svg version="1.1" id="Layer_1" xmlns="http://www.w3.org/2000/svg" xmlns:xlink="http://www.w3.org/1999/xlink" x="0px" y="0px"
	 width="60px" height="60px" viewBox="62.5 1.5 60 60" enable-background="new 62.5 1.5 60 60" xml:space="preserve">
<g>
	<path fill="none" stroke="#FFFFFF" stroke-width="2.574" stroke-miterlimit="10" d="M118.387,52.934
		c0,2.217-1.797,4.021-4.02,4.021h-42.91c-2.226,0-4.02-1.805-4.02-4.021V10.019c0-2.221,1.794-4.021,4.02-4.021h42.91
		c2.223,0,4.02,1.8,4.02,4.021V52.934z"/>
</g>
<path fill="#FFFFFF" d="M80.899,15.314h24.027c2.283,0,4.149,1.867,4.149,4.15v24.027c0,2.281-1.866,4.148-4.149,4.148H80.899
	c-2.282,0-4.151-1.867-4.151-4.148V19.464C76.748,17.181,78.617,15.314,80.899,15.314z M100.298,18.905
	c-0.801,0-1.455,0.657-1.455,1.457v3.481c0,0.802,0.654,1.457,1.455,1.457h3.653c0.8,0,1.456-0.655,1.456-1.457v-3.481
	c0-0.8-0.655-1.457-1.456-1.457H100.298z M105.42,28.984h-2.845c0.27,0.882,0.417,1.809,0.417,2.775c0,5.375-4.5,9.734-10.05,9.734
	c-5.548,0-10.049-4.359-10.049-9.734c0-0.967,0.148-1.893,0.417-2.775h-2.968v13.657c0,0.706,0.578,1.281,1.284,1.281h22.511
	c0.707,0,1.284-0.575,1.284-1.281L105.42,28.984L105.42,28.984z M92.942,25.117c-3.584,0-6.491,2.813-6.491,6.29
	c0,3.473,2.907,6.291,6.491,6.291c3.586,0,6.494-2.818,6.494-6.291C99.436,27.93,96.528,25.117,92.942,25.117z"/>
</svg>
