<?xml version="1.0" encoding="utf-8"?>
<!-- Generator: Adobe Illustrator 16.0.0, SVG Export Plug-In . SVG Version: 6.00 Build 0)  -->
<!DOCTYPE svg PUBLIC "-//W3C//DTD SVG 1.1//EN" "http://www.w3.org/Graphics/SVG/1.1/DTD/svg11.dtd">
<svg version="1.1" id="Layer_1" xmlns="http://www.w3.org/2000/svg" xmlns:xlink="http://www.w3.org/1999/xlink" x="0px" y="0px"
	 width="60px" height="60px" viewBox="255.5 3.5 60 60" enable-background="new 255.5 3.5 60 60" xml:space="preserve">
<g>
	<path fill="none" stroke="#FFFFFF" stroke-width="2.574" stroke-miterlimit="10" d="M311.219,54.936
		c0,2.215-1.796,4.019-4.02,4.019h-42.91c-2.227,0-4.02-1.804-4.02-4.019V12.018c0-2.219,1.793-4.019,4.02-4.019h42.91
		c2.223,0,4.02,1.8,4.02,4.019V54.936z"/>
</g>
<g>
	<path fill="#FFFFFF" d="M268.344,41.573c0.084,0,0.157-0.071,0.17-0.169l0.461-3.665l-0.461-3.75
		c-0.014-0.099-0.086-0.169-0.17-0.169c-0.088,0-0.162,0.071-0.173,0.169l-0.405,3.75l0.405,3.664
		C268.182,41.501,268.255,41.573,268.344,41.573z"/>
	<path fill="#FFFFFF" d="M266.818,40.179c0.082,0,0.149-0.064,0.162-0.163l0.357-2.277l-0.357-2.322
		c-0.013-0.093-0.08-0.162-0.162-0.162c-0.088,0-0.155,0.068-0.168,0.164l-0.299,2.32l0.299,2.276
		C266.663,40.112,266.73,40.179,266.818,40.179z"/>
	<path fill="#FFFFFF" d="M270.167,33.291c-0.011-0.119-0.099-0.207-0.207-0.207s-0.194,0.088-0.206,0.207l-0.386,4.448l0.386,4.285
		c0.01,0.118,0.098,0.204,0.206,0.204s0.194-0.086,0.207-0.204l0.437-4.285L270.167,33.291z"/>
	<path fill="#FFFFFF" d="M271.596,42.401c0.127,0,0.229-0.105,0.242-0.241l0.413-4.419l-0.413-4.573
		c-0.012-0.137-0.115-0.241-0.242-0.241c-0.128,0-0.231,0.104-0.24,0.241l-0.364,4.573l0.364,4.419
		C271.363,42.296,271.467,42.401,271.596,42.401z"/>
	<path fill="#FFFFFF" d="M273.242,42.472c0.146,0,0.266-0.118,0.279-0.276l-0.002,0.001l0.389-4.456l-0.389-4.243
		c-0.013-0.155-0.131-0.276-0.277-0.276c-0.15,0-0.268,0.122-0.277,0.277l-0.344,4.242l0.344,4.455
		C272.975,42.354,273.091,42.472,273.242,42.472z"/>
	<path fill="#FFFFFF" d="M275.579,37.741l-0.365-6.897c-0.01-0.175-0.146-0.312-0.313-0.312c-0.166,0-0.301,0.139-0.312,0.312
		l-0.323,6.897l0.323,4.456c0.011,0.176,0.146,0.312,0.312,0.312c0.168,0,0.305-0.137,0.313-0.312v0.001L275.579,37.741z"/>
	<path fill="#FFFFFF" d="M276.577,42.517c0.184,0,0.336-0.152,0.345-0.348v0.002l0.342-4.431l-0.342-8.474
		c-0.008-0.195-0.161-0.348-0.345-0.348c-0.188,0-0.341,0.153-0.351,0.348l-0.301,8.474l0.303,4.431
		C276.236,42.364,276.389,42.517,276.577,42.517z"/>
	<path fill="#FFFFFF" d="M278.261,28.176c-0.206,0-0.374,0.169-0.383,0.384l-0.278,9.183l0.278,4.383
		c0.009,0.213,0.177,0.383,0.383,0.383c0.208,0,0.375-0.168,0.384-0.383v0.001l0.316-4.384l-0.316-9.183
		C278.637,28.344,278.469,28.176,278.261,28.176z"/>
	<path fill="#FFFFFF" d="M279.961,42.517c0.229,0,0.409-0.183,0.418-0.419v0.001l0.292-4.356l-0.292-9.49
		c-0.009-0.237-0.189-0.42-0.418-0.42s-0.413,0.183-0.417,0.42l-0.263,9.49l0.263,4.356
		C279.548,42.334,279.732,42.517,279.961,42.517z"/>
	<path fill="#FFFFFF" d="M281.674,42.512c0.246,0,0.446-0.201,0.454-0.456v0.004l0.271-4.317l-0.271-9.25
		c-0.008-0.255-0.208-0.456-0.454-0.456c-0.247,0-0.445,0.201-0.453,0.456l-0.236,9.25l0.238,4.313
		C281.229,42.312,281.427,42.512,281.674,42.512z"/>
	<path fill="#FFFFFF" d="M284.133,37.744l-0.244-8.912c-0.006-0.276-0.221-0.492-0.488-0.492c-0.267,0-0.481,0.216-0.487,0.494
		l-0.22,8.911l0.22,4.288c0.006,0.273,0.222,0.489,0.487,0.489c0.269,0,0.482-0.216,0.488-0.493v0.004L284.133,37.744z"/>
	<path fill="#FFFFFF" d="M285.141,42.529c0.283,0,0.52-0.236,0.522-0.525v0.001l0.222-4.258l-0.222-10.606
		c-0.004-0.291-0.239-0.526-0.522-0.526s-0.519,0.237-0.522,0.528l-0.197,10.599l0.197,4.264
		C284.622,42.293,284.855,42.529,285.141,42.529z"/>
	<path fill="#FFFFFF" d="M286.874,25.616c-0.308,0-0.556,0.255-0.562,0.564l-0.229,11.566l0.229,4.196
		c0.004,0.307,0.252,0.561,0.56,0.561c0.301,0,0.555-0.254,0.558-0.565v0.004l0.25-4.196l-0.25-11.566
		C287.428,25.869,287.175,25.616,286.874,25.616z"/>
	<path fill="#FFFFFF" d="M288.458,42.532c0.013,0.002,13.97,0.009,14.06,0.009c2.803,0,5.073-2.299,5.073-5.135
		c0-2.834-2.271-5.133-5.073-5.133c-0.694,0-1.356,0.142-1.961,0.399c-0.402-4.629-4.236-8.259-8.914-8.259
		c-1.144,0-2.259,0.228-3.244,0.615c-0.383,0.149-0.484,0.304-0.487,0.604v16.294C287.914,42.24,288.154,42.503,288.458,42.532z"/>
</g>
</svg>
