<?xml version="1.0" encoding="utf-8"?>
<!-- Generator: Adobe Illustrator 16.0.0, SVG Export Plug-In . SVG Version: 6.00 Build 0)  -->
<!DOCTYPE svg PUBLIC "-//W3C//DTD SVG 1.1//EN" "http://www.w3.org/Graphics/SVG/1.1/DTD/svg11.dtd">
<svg version="1.1" id="Layer_1" xmlns="http://www.w3.org/2000/svg" xmlns:xlink="http://www.w3.org/1999/xlink" x="0px" y="0px"
	 width="60px" height="60px" viewBox="160.5 21.5 60 60" enable-background="new 160.5 21.5 60 60" xml:space="preserve">
<g>
	<path fill="none" stroke="#FFFFFF" stroke-width="2.574" stroke-miterlimit="10" d="M215.5,72.437c0,2.215-1.795,4.019-4.021,4.019
		h-42.907c-2.228,0-4.021-1.804-4.021-4.019V29.519c0-2.219,1.794-4.019,4.021-4.019h42.907c2.224,0,4.021,1.8,4.021,4.019V72.437z"
		/>
</g>
<path fill="#FFFFFF" d="M207.384,40.211c-1.277,0.566-2.651,0.949-4.091,1.121c1.471-0.88,2.601-2.277,3.132-3.938
	c-1.375,0.815-2.897,1.408-4.521,1.729c-1.302-1.385-3.152-2.25-5.199-2.25c-3.936,0-7.123,3.189-7.123,7.121
	c0,0.559,0.062,1.103,0.184,1.624c-5.92-0.296-11.167-3.132-14.68-7.442c-0.612,1.052-0.963,2.277-0.963,3.582
	c0,2.47,1.257,4.651,3.166,5.927c-1.166-0.036-2.266-0.358-3.227-0.893v0.091c0,3.45,2.455,6.328,5.712,6.983
	c-0.597,0.163-1.228,0.252-1.876,0.252c-0.458,0-0.904-0.048-1.34-0.13c0.906,2.83,3.536,4.888,6.652,4.948
	c-2.438,1.908-5.508,3.049-8.846,3.049c-0.574,0-1.142-0.036-1.699-0.101c3.152,2.019,6.896,3.199,10.921,3.199
	c13.099,0,20.261-10.854,20.261-20.264c0-0.307-0.007-0.615-0.02-0.922C205.221,42.895,206.427,41.639,207.384,40.211z"/>
</svg>
